<svg width="512" height="449" viewBox="0 0 512 449" fill="none" xmlns="http://www.w3.org/2000/svg">
<path d="M458.4 32.3219C400.6 -16.2781 311.3 -8.97808 256 47.3219C200.7 -8.97808 111.4 -16.3781 53.6001 32.3219C-21.5999 95.6219 -10.5999 198.822 43.0001 253.522L218.4 432.222C228.4 442.422 241.8 448.122 256 448.122C270.3 448.122 283.6 442.522 293.6 432.322L469 253.622C522.5 198.922 533.7 95.7219 458.4 32.3219ZM434.8 219.822L259.4 398.522C257 400.922 255 400.922 252.6 398.522L77.2001 219.822C40.7001 182.622 33.3001 112.222 84.5001 69.1219C123.4 36.4219 183.4 41.3219 221 79.6219L256 115.322L291 79.6219C328.8 41.1219 388.8 36.4219 427.5 69.0219C478.6 112.122 471 182.922 434.8 219.822Z" fill="#FFCD38"/>
</svg>
